# xmcd
#
# Track frame offsets:
#	150
#	15707
#	29582
#	44542
#	61902
#	74742
#	89295
#	106372
#	120082
#	133760
#
# Disc length: 1985 seconds
#
# Revision: 2
# Processed by: cddbd v1.5.2PL0 Copyright (c) Steve Scherf et al.
# Submitted via: EasyCDDAExtractor 15.3.0.1
#
DISCID=8907bf0a
DTITLE=Selena - The Selena Collection
DYEAR=1997
DGENRE=Latin
TTITLE0=Aunque No Salga El Sol
TTITLE1=Como La Flor
TTITLE2=Tengo Ganas De Llorar
TTITLE3=Missing My Baby
TTITLE4=My Love
TTITLE5=La Llamada
TTITLE6=Techno Cumbia
TTITLE7=Baila Esta Cumbia
TTITLE8=Sukiyaki
TTITLE9=A Million To One
EXTD=
EXTT0=
EXTT1=
EXTT2=
EXTT3=
EXTT4=
EXTT5=
EXTT6=
EXTT7=
EXTT8=
EXTT9=
PLAYORDER=
